<svg width="17" height="20" viewBox="0 0 17 20" fill="none" xmlns="http://www.w3.org/2000/svg">
<path d="M16.6651 14.811C16.3882 15.4565 16.0461 16.072 15.6441 16.648C15.1071 17.415 14.6661 17.945 14.3281 18.24C13.8031 18.722 13.2391 18.97 12.6361 18.984C12.2041 18.984 11.6821 18.861 11.0741 18.611C10.4641 18.362 9.90414 18.24 9.39114 18.24C8.85414 18.24 8.27814 18.362 7.66114 18.611C7.04514 18.861 6.54714 18.992 6.16614 19.004C5.58914 19.029 5.01214 18.775 4.43714 18.24C4.07014 17.92 3.61114 17.37 3.06014 16.592C2.47014 15.763 1.98514 14.798 1.60514 13.701C1.19814 12.514 0.994141 11.366 0.994141 10.254C0.994141 8.98102 1.26914 7.88202 1.82014 6.96202C2.23689 6.23949 2.83269 5.63646 3.55014 5.21102C4.25761 4.78669 5.06523 4.55821 5.89014 4.54902C6.35014 4.54902 6.95314 4.69102 7.70014 4.97102C8.44714 5.25102 8.92714 5.39302 9.13614 5.39302C9.29414 5.39302 9.82514 5.22602 10.7291 4.89502C11.5821 4.58802 12.3021 4.46102 12.8921 4.51102C14.4921 4.64002 15.6931 5.27002 16.4921 6.40602C15.0621 7.27302 14.3551 8.48602 14.3691 10.043C14.3811 11.256 14.8221 12.265 15.6861 13.066C16.0681 13.4316 16.5138 13.7241 17.0011 13.929C16.8951 14.236 16.7831 14.529 16.6651 14.811ZM12.9981 0.380024C12.9981 1.33002 12.6501 2.21802 11.9591 3.03902C11.1231 4.01502 10.1131 4.58002 9.01814 4.49102C9.00382 4.37156 8.99681 4.25134 8.99714 4.13102C8.99714 3.21802 9.39314 2.24202 10.1001 1.44302C10.4521 1.03902 10.9001 0.702024 11.4431 0.434023C11.9851 0.170024 12.4971 0.0240234 12.9791 -0.000976562C12.9921 0.127023 12.9981 0.254024 12.9981 0.380024Z" fill="#3A4750"/>
</svg>
