<svg width="20" height="20" viewBox="0 0 20 20" fill="none" xmlns="http://www.w3.org/2000/svg">
<path d="M17.4341 19.3332L11.0781 12.9786C9.69022 13.8941 8.01199 14.2621 6.36838 14.0112C4.72477 13.7604 3.23272 12.9085 2.18118 11.6206C1.12963 10.3327 0.593402 8.70047 0.676331 7.03989C0.75926 5.37932 1.45545 3.8086 2.63007 2.63189C3.80656 1.45682 5.37728 0.760176 7.038 0.67689C8.69872 0.593603 10.3313 1.1296 11.6194 2.18107C12.9076 3.23254 13.7597 4.72465 14.0107 6.3684C14.2617 8.01215 13.8937 9.69056 12.9781 11.0786L19.3314 17.4359L17.4341 19.3332ZM7.37674 3.35189C6.3088 3.35118 5.28432 3.77474 4.52868 4.52939C3.77303 5.28404 3.34812 6.30795 3.34741 7.37589C3.3467 8.44383 3.77026 9.46831 4.52491 10.224C5.27955 10.9796 6.30347 11.4045 7.37141 11.4052C7.9002 11.4056 8.42388 11.3018 8.91255 11.0997C9.40122 10.8977 9.84531 10.6014 10.2195 10.2277C10.5936 9.85406 10.8905 9.41036 11.0932 8.92196C11.2959 8.43356 11.4004 7.91001 11.4007 7.38122C11.4011 6.85244 11.2973 6.32875 11.0952 5.84008C10.8932 5.35141 10.5969 4.90732 10.2232 4.53316C9.84958 4.159 9.40588 3.86211 8.91748 3.65942C8.42907 3.45674 7.90553 3.35224 7.37674 3.35189V3.35189Z" fill="#303841"/>
</svg>
